# xmcd
#
# Track frame offsets: 
#        150
#        34053
#        68686
#        114876
#        149783
#        184843
#        235632
#        285959
#
# Disc length: 4219 seconds
#
# Revision: 0
# Processed by: cddbd v1.5.2PL0 Copyright (c) Steve Scherf et al.
# Submitted via: ExactAudioCopy v0.99pb4
#
DISCID=69107908
DTITLE=The John O'leary Band - Two For The Show Cd 2 Live' At Mr. Kyps
DYEAR=2010
DGENRE=Blues
TTITLE0=Born In Chicago
TTITLE1=Snatch It Back
TTITLE2=Early In The Morning
TTITLE3=Butterfingers
TTITLE4=Little By Little
TTITLE5=Who's Been Talking
TTITLE6=Black Cat Bone
TTITLE7=Look On Yonder's Wall
EXTD=
EXTT0=
EXTT1=
EXTT2=
EXTT3=
EXTT4=
EXTT5=
EXTT6=
EXTT7=
PLAYORDER=
